<svg xmlns="http://www.w3.org/2000/svg">
  <symbol fill="none" viewBox="0 0 24 34" id="point">
    <path d="M12 .333A11.658 11.658 0 00.333 12C.333 20.75 12 33.667 12 33.667S23.667 20.75 23.667 12C23.667 5.55 18.45.333 12 .333zm0 15.834a4.167 4.167 0 110-8.334 4.167 4.167 0 010 8.334z" fill="#EC6E4D"></path>
  </symbol>
  <symbol fill="none" viewBox="0 0 18 18" id="search">
    <path d="M17.292 15.882l-5.56-5.56c1.13-1.55 1.63-3.58.98-5.74-.68-2.23-2.57-3.98-4.85-4.44a6.511 6.511 0 00-7.72 7.72c.46 2.29 2.21 4.18 4.44 4.85 2.16.65 4.19.15 5.74-.98l5.56 5.56a.997.997 0 001.41-1.41zm-15.29-9.38c0-2.49 2.01-4.5 4.5-4.5s4.5 2.01 4.5 4.5-2.01 4.5-4.5 4.5-4.5-2.01-4.5-4.5z" fill="#ACACAC"></path>
  </symbol>
  <symbol viewBox="0 0 13 13" id="switch">
    <path d="M10.607 2.121A5.984 5.984 0 007.913.573a5.986 5.986 0 01-1.549 5.791A5.986 5.986 0 01.573 7.913a5.984 5.984 0 001.548 2.694 6.002 6.002 0 008.486 0 6.002 6.002 0 000-8.486z"></path>
  </symbol>
  <symbol fill="none" viewBox="0 0 38 38" id="arrow">
    <circle cx="19" cy="19" r="19" fill="#48484A"></circle>
    <path d="M28.396 10.966l-8.483 19.95c-.34.8-1.468.815-1.83.025L8.959 11.013c-.364-.795.398-1.648 1.237-1.403 6.38 1.868 10.7 1.834 16.952-.018.826-.245 1.587.58 1.25 1.374z" fill="#E6E6E6"></path>
  </symbol>
</svg>