<svg width="24" height="34" viewBox="0 0 24 34" fill="none" xmlns="http://www.w3.org/2000/svg">
<path d="M12 0.333313C5.55004 0.333313 0.333374 5.54998 0.333374 12C0.333374 20.75 12 33.6666 12 33.6666C12 33.6666 23.6667 20.75 23.6667 12C23.6667 5.54998 18.45 0.333313 12 0.333313ZM12 16.1666C10.895 16.1666 9.83516 15.7277 9.05376 14.9463C8.27236 14.1649 7.83337 13.105 7.83337 12C7.83337 10.8949 8.27236 9.8351 9.05376 9.0537C9.83516 8.2723 10.895 7.83331 12 7.83331C13.1051 7.83331 14.1649 8.2723 14.9463 9.0537C15.7277 9.8351 16.1667 10.8949 16.1667 12C16.1667 13.105 15.7277 14.1649 14.9463 14.9463C14.1649 15.7277 13.1051 16.1666 12 16.1666Z" fill="#EC6E4D"/>
</svg>
