<svg width="0" height="0" class="hidden">
  <symbol fill="none" xmlns="http://www.w3.org/2000/svg" viewBox="0 0 23 23" id="arrow">
    <path d="M8.195 22.003L.087 1.898C-.238 1.092.55.284 1.363.586l20.544 7.639c.82.304.884 1.447.117 1.866-5.832 3.191-8.863 6.27-11.974 12-.411.757-1.533.711-1.855-.088z" fill="#E6E6E6"></path>
  </symbol>
  <symbol fill="none" xmlns="http://www.w3.org/2000/svg" viewBox="0 0 24 34" id="point">
    <path d="M12 .333A11.658 11.658 0 00.333 12C.333 20.75 12 33.667 12 33.667S23.667 20.75 23.667 12C23.667 5.55 18.45.333 12 .333zm0 15.834a4.167 4.167 0 110-8.334 4.167 4.167 0 010 8.334z" fill="#EC6E4D"></path>
  </symbol>
  <symbol fill="none" xmlns="http://www.w3.org/2000/svg" viewBox="0 0 18 18" id="search">
    <path d="M17.292 15.882l-5.56-5.56c1.13-1.55 1.63-3.58.98-5.74-.68-2.23-2.57-3.98-4.85-4.44a6.511 6.511 0 00-7.72 7.72c.46 2.29 2.21 4.18 4.44 4.85 2.16.65 4.19.15 5.74-.98l5.56 5.56a.997.997 0 001.41-1.41zm-15.29-9.38c0-2.49 2.01-4.5 4.5-4.5s4.5 2.01 4.5 4.5-2.01 4.5-4.5 4.5-4.5-2.01-4.5-4.5z" fill="#ACACAC"></path>
  </symbol>
</svg>